<svg width="25" height="28" viewBox="0 0 25 28" fill="none" xmlns="http://www.w3.org/2000/svg">
<path d="M8.78154 0C5.51285 0 2.85547 2.91226 2.85547 6.49447C2.85547 10.0083 5.36313 12.8522 8.63183 12.9753C8.73164 12.9616 8.83145 12.9616 8.9063 12.9753H8.96868H8.99363C12.1875 12.8522 14.6951 10.0083 14.7076 6.49447C14.7076 2.91226 12.0502 0 8.78154 0Z" fill="white"/>
<path d="M15.1208 16.6104C11.64 14.0674 5.9635 14.0674 2.45776 16.6104C0.873316 17.7726 0 19.345 0 21.0267C0 22.7084 0.873316 24.2671 2.44529 25.4156C4.19192 26.7008 6.48749 27.3434 8.78307 27.3434C11.0786 27.3434 13.3742 26.7008 15.1208 25.4156C16.6928 24.2534 17.5661 22.6947 17.5661 20.9993C17.5536 19.3176 16.6928 17.7589 15.1208 16.6104Z" fill="white"/>
<path d="M22.4921 7.29842C22.6917 9.9509 20.97 12.2752 18.5871 12.5896C18.5747 12.5896 18.5747 12.5896 18.5622 12.5896H18.5248C18.4499 12.5896 18.375 12.5896 18.3127 12.617C17.1025 12.6853 15.9921 12.2615 15.1562 11.4822C16.4413 10.2243 17.1774 8.33753 17.0276 6.28665C16.9403 5.17917 16.591 4.1674 16.067 3.30602C16.5411 3.04625 17.09 2.88217 17.6514 2.82748C20.0967 2.59505 22.28 4.59125 22.4921 7.29842Z" fill="white"/>
<path d="M24.9866 19.9491C24.8868 21.2753 24.1133 22.4238 22.8158 23.2031C21.5682 23.9551 19.9962 24.3106 18.4367 24.2696C19.335 23.3809 19.859 22.2734 19.9588 21.0976C20.0836 19.4022 19.3475 17.7751 17.8753 16.4762C17.0394 15.7516 16.0663 15.1773 15.0059 14.7535C17.763 13.8784 21.2314 14.4664 23.3647 16.3532C24.5125 17.365 25.0989 18.6365 24.9866 19.9491Z" fill="white"/>
</svg>
