<svg width="311" height="23" viewBox="0 0 311 23" fill="none" xmlns="http://www.w3.org/2000/svg">
<path d="M303.852 22.892V11.3693H306.144V22.892H303.852ZM299.241 18.2727V15.9801H310.763V18.2727H299.241Z" fill="white"/>
<path d="M7.87145 17.5199V19.7273H0.132812V17.5199H7.87145Z" fill="white"/>
<path d="M144.684 11.1392C144.061 11.1392 143.501 11.0199 143.004 10.7812C142.51 10.5393 142.115 10.2079 141.82 9.78693C141.525 9.366 141.368 8.88542 141.348 8.34517H142.839C142.876 8.78267 143.07 9.14228 143.421 9.42401C143.772 9.70573 144.193 9.84659 144.684 9.84659C145.075 9.84659 145.421 9.7571 145.723 9.57812C146.028 9.39583 146.267 9.1456 146.439 8.82741C146.615 8.50923 146.702 8.14631 146.702 7.73864C146.702 7.32434 146.613 6.95478 146.434 6.62997C146.255 6.30516 146.008 6.04995 145.693 5.86435C145.382 5.67874 145.024 5.58428 144.619 5.58097C144.311 5.58097 144.001 5.634 143.69 5.74006C143.378 5.84612 143.126 5.98532 142.934 6.15767L141.527 5.94886L142.099 0.818182H147.697V2.13565H143.376L143.053 4.98438H143.113C143.312 4.79214 143.575 4.63139 143.903 4.50213C144.235 4.37287 144.589 4.30824 144.967 4.30824C145.587 4.30824 146.139 4.45573 146.623 4.75071C147.11 5.04569 147.493 5.44839 147.771 5.95881C148.053 6.46591 148.192 7.04924 148.189 7.70881C148.192 8.36837 148.043 8.95668 147.741 9.47372C147.443 9.99077 147.029 10.3984 146.499 10.6967C145.972 10.9917 145.367 11.1392 144.684 11.1392ZM153.55 11.169C152.764 11.1657 152.093 10.9586 151.536 10.5476C150.979 10.1366 150.553 9.53835 150.258 8.75284C149.963 7.96733 149.816 7.02107 149.816 5.91406C149.816 4.81037 149.963 3.86742 150.258 3.08523C150.557 2.30303 150.984 1.70644 151.541 1.29545C152.101 0.884469 152.771 0.678977 153.55 0.678977C154.328 0.678977 154.996 0.886126 155.553 1.30043C156.11 1.71141 156.536 2.308 156.831 3.0902C157.129 3.86908 157.278 4.81037 157.278 5.91406C157.278 7.02438 157.131 7.9723 156.836 8.75781C156.541 9.54001 156.115 10.1383 155.558 10.5526C155.001 10.9635 154.332 11.169 153.55 11.169ZM153.55 9.84162C154.239 9.84162 154.778 9.50521 155.165 8.83239C155.556 8.15956 155.752 7.18679 155.752 5.91406C155.752 5.06889 155.662 4.35464 155.483 3.77131C155.308 3.18466 155.054 2.74053 154.723 2.43892C154.395 2.134 154.004 1.98153 153.55 1.98153C152.863 1.98153 152.325 2.3196 151.934 2.99574C151.543 3.67187 151.345 4.64465 151.342 5.91406C151.342 6.76255 151.43 7.48011 151.606 8.06676C151.785 8.65009 152.038 9.09257 152.366 9.39418C152.694 9.69247 153.089 9.84162 153.55 9.84162ZM164.357 9.09091V8.55398C164.357 8.16951 164.436 7.81818 164.595 7.5C164.758 7.1785 164.993 6.92164 165.301 6.7294C165.613 6.53385 165.989 6.43608 166.43 6.43608C166.88 6.43608 167.258 6.5322 167.563 6.72443C167.868 6.91667 168.098 7.17353 168.254 7.49503C168.413 7.81652 168.493 8.16951 168.493 8.55398V9.09091C168.493 9.47538 168.413 9.82836 168.254 10.1499C168.095 10.468 167.862 10.7249 167.553 10.9205C167.248 11.1127 166.874 11.2088 166.43 11.2088C165.982 11.2088 165.604 11.1127 165.296 10.9205C164.988 10.7249 164.754 10.468 164.595 10.1499C164.436 9.82836 164.357 9.47538 164.357 9.09091ZM165.515 8.55398V9.09091C165.515 9.37595 165.583 9.63447 165.719 9.86648C165.855 10.0985 166.092 10.2145 166.43 10.2145C166.764 10.2145 166.998 10.0985 167.131 9.86648C167.263 9.63447 167.33 9.37595 167.33 9.09091V8.55398C167.33 8.26894 167.265 8.01042 167.136 7.77841C167.01 7.5464 166.774 7.4304 166.43 7.4304C166.098 7.4304 165.863 7.5464 165.724 7.77841C165.585 8.01042 165.515 8.26894 165.515 8.55398ZM159.236 3.2642V2.72727C159.236 2.3428 159.315 1.98982 159.474 1.66832C159.637 1.34683 159.872 1.08996 160.18 0.897727C160.492 0.705492 160.868 0.609375 161.309 0.609375C161.76 0.609375 162.138 0.705492 162.442 0.897727C162.747 1.08996 162.978 1.34683 163.134 1.66832C163.289 1.98982 163.367 2.3428 163.367 2.72727V3.2642C163.367 3.64867 163.288 4.00166 163.129 4.32315C162.973 4.64134 162.741 4.8982 162.433 5.09375C162.128 5.28598 161.753 5.3821 161.309 5.3821C160.858 5.3821 160.479 5.28598 160.17 5.09375C159.866 4.8982 159.634 4.64134 159.474 4.32315C159.315 4.00166 159.236 3.64867 159.236 3.2642ZM160.399 2.72727V3.2642C160.399 3.54924 160.465 3.80776 160.598 4.03977C160.734 4.27178 160.971 4.38778 161.309 4.38778C161.64 4.38778 161.872 4.27178 162.005 4.03977C162.141 3.80776 162.209 3.54924 162.209 3.2642V2.72727C162.209 2.44223 162.144 2.18371 162.015 1.9517C161.886 1.7197 161.65 1.60369 161.309 1.60369C160.978 1.60369 160.742 1.7197 160.603 1.9517C160.467 2.18371 160.399 2.44223 160.399 2.72727ZM159.708 11L166.708 0.818182H167.896L160.896 11H159.708Z" fill="white"/>
<path d="M290 18H20.5" stroke="white" stroke-width="3"/>
<path d="M19 18H155" stroke="#083DC1" stroke-width="3"/>
</svg>
