<svg width="205" height="113" viewBox="0 0 205 113" fill="none" xmlns="http://www.w3.org/2000/svg">
<path d="M20.0429 69.2275C17.616 65.6449 17.3643 62.1188 15.7147 58.3577C14.3419 55.2277 13.4951 51.1283 13.0587 47.7338C12.4842 43.2652 16.2996 51.0213 16.9935 52.0621C22.9816 61.0443 27.818 70.7336 33.8146 79.7284C36.9004 84.3571 40.2069 88.6862 43.6023 93.082C45.2258 95.1839 46.2682 97.6399 48.0535 99.6236C50.3139 102.135 49.2585 97.9358 49.2585 96.1315C49.2585 87.7624 46.2131 79.7419 43.8728 71.7851C42.6 67.4574 41.1793 62.9721 39.2249 58.8987C37.2598 54.803 35.3199 52.1632 34.5524 47.5863C34.0052 44.3238 32.5335 40.6215 32.4374 37.3559C32.4029 36.1827 33.5143 42.2582 33.7162 42.9629C36.0605 51.1448 38.8708 60.1156 43.5531 67.2601C47.6013 73.437 51.8641 79.3926 55.9968 85.483C56.6885 86.5024 57.6691 89.2307 57.6691 86.147C57.6691 83.4316 57.7762 80.6947 57.6691 77.9823C57.4409 72.2008 54.3043 66.6582 52.5047 61.2596C48.2572 48.5171 43.0422 35.6745 40.184 22.5267C39.4437 19.1213 41.1648 26.8456 41.3152 27.4944C43.0671 35.0492 47.3509 40.661 51.4227 47.1928C58.1168 57.9313 66.0705 67.6767 72.2769 78.6709C73.2364 80.3705 73.6049 81.3597 73.6049 78.8185C73.6049 72.2926 73.6786 65.8761 72.8179 59.3906C71.1287 46.661 64.7517 35.2312 64.7517 22.2808C64.7517 20.7866 64.0803 16.6256 64.9976 17.805C65.6533 18.6481 65.8177 19.9875 66.3748 20.9282C67.6786 23.1302 68.8355 25.4034 70.1128 27.6174C74.3947 35.0393 79.3154 42.5365 84.7698 49.1356C90.7221 56.3371 97.2565 63.7309 101.738 71.9818C103.769 75.7203 106.165 79.3007 107.591 83.2943C107.785 83.8349 108.955 77.7072 108.993 76.679C109.224 70.4585 109.284 63.9921 108.747 57.7921C108.101 50.3257 106.425 42.8489 106.362 35.3393C106.348 33.6591 106.362 31.9782 106.362 30.2979C106.362 29.6175 105.753 27.9525 106.362 28.2568C106.942 28.5467 107.336 30.9237 107.444 31.4046C108.168 34.6297 109.227 37.6042 110.543 40.6513C114.201 49.1283 120.241 56.3791 125.445 63.9647C130.585 71.4553 136.264 78.3121 140.865 86.1716C142.112 88.3026 143.147 89.9304 143.816 87.0323C144.815 82.704 145.321 78.4539 144.578 73.9984C143.38 66.8092 138.474 61.851 135.479 55.4558C132.808 49.7537 129.713 44.2786 127.61 38.3396C127.1 36.9007 126.98 33.3102 125.839 32.2407C125.262 31.6996 125.39 33.7864 125.421 34.577C125.542 37.6546 126.509 40.3909 127.708 43.2089C131.171 51.3505 136.93 59.1289 143.25 65.2927C146.126 68.0976 149.159 70.743 151.931 73.6541C152.645 74.4034 155.625 78.469 155.473 75.4985C155.044 67.1363 152.066 59.2516 149.767 51.2751C147.134 42.1352 144.508 33.0296 142.07 23.8301C141.399 21.2983 140.668 18.7773 140.053 16.2311C139.814 15.2381 139.561 12.1847 139.561 13.2063C139.561 18.3306 141.151 21.9852 142.586 26.8304C144.839 34.4318 150.46 40.6298 154.489 47.3895C158.096 53.4426 162.626 58.4615 165.482 64.9238C165.829 65.7107 167.111 68.2887 168.138 68.3914C168.487 68.4263 168.334 64.944 168.334 64.8501C168.334 61.6882 168.401 58.5186 168.334 55.3574C168.227 50.2521 166.624 45.2822 165.432 40.3562C164.674 37.222 164.431 33.815 163.219 30.8143C162.594 29.2673 161.904 27.9161 161.694 26.2402C161.479 24.5137 162.138 29.7038 162.604 31.38C163.66 35.1714 164.573 39.0183 165.777 42.7662C167.472 48.0449 170.09 52.3026 173.154 56.8822C176.683 62.1564 179.953 67.6481 183.631 72.818C185.73 75.7688 188.024 78.6015 190.197 81.499C190.534 81.9479 192.05 83.6544 192.213 82.2614C193.472 71.5603 190.077 60.3743 186.434 50.4882C183.792 43.317 181.75 35.5148 180.286 28.0108C180.266 27.9087 179.48 25.3182 179.057 25.6992C178.191 26.478 179.711 29.9507 179.942 30.6668C182.187 37.6213 183.311 44.7849 185.844 51.7178C186.835 54.4308 188.492 56.76 189.705 59.366C189.77 59.5061 191.228 63.1696 191.328 62.2187C192.212 53.8244 191.353 44.9212 191.353 36.4706" stroke="#5751AC" stroke-width="25" stroke-linecap="round"/>
</svg>
